<svg xmlns="http://www.w3.org/2000/svg" version="1.1" xmlns:xlink="http://www.w3.org/1999/xlink" xmlns:svgjs="http://svgjs.com/svgjs" width="200px" height="200px"><svg xmlns="http://www.w3.org/2000/svg" xmlns:xlink="http://www.w3.org/1999/xlink" width="200px" height="200px" viewBox="0 0 200 200" version="1.1">
<g id="SvgjsG1000">
<path style=" stroke:none;fill-rule:nonzero;fill:rgb(0%,0%,0%);fill-opacity:1;" d="M 0 100.019531 L 0 200 L 200 200 L 200 0.0390625 L 100 0.0390625 L 0 0.0585938 Z M 112.96875 47.246094 C 119.804688 48.75 126.503906 53.417969 130.664062 59.550781 C 131.699219 61.113281 133.222656 64.296875 133.769531 66.113281 C 134.941406 69.980469 135 70.566406 135.136719 82.03125 C 135.195312 87.890625 135.195312 97.949219 135.136719 104.394531 L 135.019531 116.113281 L 134.199219 119.238281 C 132.910156 124.101562 131.269531 127.753906 129.101562 130.507812 C 126.875 133.339844 124.53125 135.566406 122.011719 137.1875 C 120.761719 138.007812 119.6875 138.671875 119.648438 138.671875 C 119.589844 138.671875 119.648438 138.378906 119.746094 138.046875 C 119.84375 137.695312 119.921875 137.070312 119.921875 136.679688 C 119.921875 136.210938 120.019531 135.9375 120.175781 135.9375 C 120.332031 135.9375 120.332031 135.878906 120.214844 135.78125 C 119.921875 135.585938 119.980469 135.039062 120.273438 135.097656 C 120.410156 135.136719 120.488281 135.078125 120.449219 135 C 120.429688 134.921875 121.132812 134.21875 121.992188 133.457031 C 123.945312 131.71875 126.445312 129.023438 127.304688 127.675781 C 129.21875 124.6875 130.9375 120.332031 131.640625 116.621094 C 131.914062 115.214844 131.933594 73.085938 131.660156 71.308594 C 131.054688 67.285156 129.550781 63.300781 127.597656 60.566406 C 124.707031 56.523438 119.453125 52.714844 114.550781 51.09375 C 111.25 50.019531 111.132812 50 99.257812 50 C 87.167969 50 86.640625 50.039062 82.890625 51.289062 C 78.085938 52.890625 73.105469 56.601562 70.488281 60.507812 C 68.320312 63.769531 66.757812 68.046875 66.386719 71.757812 C 66.308594 72.734375 66.210938 83.007812 66.210938 94.589844 C 66.210938 118.027344 66.132812 116.582031 67.597656 120.957031 C 69.199219 125.839844 72.226562 130.253906 76.425781 133.945312 C 76.816406 134.296875 77.148438 134.648438 77.167969 134.726562 C 77.167969 134.804688 77.226562 135.039062 77.285156 135.253906 C 77.34375 135.46875 77.441406 136.074219 77.480469 136.621094 C 77.539062 137.148438 77.675781 137.65625 77.773438 137.714844 C 77.890625 137.792969 77.949219 137.949219 77.910156 138.066406 C 77.753906 138.535156 73.886719 135.917969 71.757812 133.886719 C 70.761719 132.929688 68.984375 130.742188 68.066406 129.375 C 65.800781 125.917969 64.511719 122.753906 63.671875 118.457031 L 63.085938 115.449219 L 63.085938 93.769531 C 63.085938 69.082031 63.027344 70.019531 64.765625 65.039062 C 66.035156 61.347656 66.972656 59.609375 68.886719 57.441406 C 69.765625 56.425781 70.449219 55.527344 70.390625 55.429688 C 70.332031 55.351562 70.410156 55.273438 70.546875 55.273438 C 70.683594 55.273438 71.601562 54.53125 72.597656 53.632812 C 75.644531 50.820312 79.980469 48.613281 84.6875 47.441406 C 87.089844 46.855469 90.507812 46.71875 101.660156 46.777344 C 110.449219 46.835938 111.152344 46.855469 112.96875 47.246094 Z M 89.824219 54.648438 C 90.410156 55.195312 90.644531 55.605469 90.742188 56.210938 C 90.839844 56.855469 90.996094 57.109375 91.386719 57.324219 C 92.246094 57.753906 94.394531 60.15625 95.019531 61.386719 C 95.527344 62.382812 95.664062 62.519531 96.09375 62.421875 C 98.828125 61.894531 99.492188 61.855469 100.742188 62.070312 C 101.445312 62.1875 102.109375 62.226562 102.1875 62.1875 C 102.285156 62.128906 102.578125 61.71875 102.851562 61.289062 C 103.671875 60 105.058594 58.359375 106.035156 57.539062 C 106.640625 57.03125 107.050781 56.484375 107.285156 55.839844 C 107.695312 54.746094 108.457031 54.101562 109.550781 53.964844 C 110.449219 53.847656 111.230469 54.21875 112.089844 55.175781 C 112.8125 55.996094 112.910156 57.089844 112.34375 58.203125 C 111.738281 59.433594 109.765625 59.980469 108.769531 59.199219 L 108.300781 58.847656 L 106.835938 60.605469 C 104.550781 63.359375 104.570312 63.046875 106.484375 64.84375 C 108.808594 67.011719 109.492188 68.496094 109.863281 72.109375 L 110 73.4375 L 88.066406 73.4375 L 88.183594 72.304688 C 88.378906 70.527344 88.671875 69.003906 88.945312 68.203125 C 89.511719 66.621094 91.992188 63.671875 92.753906 63.671875 C 92.871094 63.671875 92.96875 63.554688 92.96875 63.417969 C 92.96875 63.007812 91.5625 60.9375 90.664062 59.980469 C 89.960938 59.238281 89.785156 59.140625 89.316406 59.277344 C 87.109375 59.824219 86.230469 59.53125 85.449219 57.929688 C 84.921875 56.855469 84.921875 56.855469 85.253906 55.859375 C 85.683594 54.53125 86.582031 53.90625 88.027344 53.90625 C 88.945312 53.90625 89.121094 53.984375 89.824219 54.648438 Z M 124.707031 63.144531 C 125.117188 63.378906 125.742188 63.964844 126.074219 64.414062 C 126.582031 65.15625 126.660156 65.429688 126.640625 66.484375 C 126.621094 67.910156 126.25 68.652344 124.921875 69.882812 C 123.632812 71.074219 122.089844 71.210938 120.683594 70.253906 C 119.121094 69.199219 118.300781 66.542969 119.042969 64.960938 C 119.980469 63.007812 122.832031 62.089844 124.707031 63.144531 Z M 76.933594 63.164062 C 78.671875 64.0625 79.707031 66.445312 79.082031 68.105469 C 78.398438 69.960938 76.992188 70.976562 75.078125 70.976562 C 74.0625 70.996094 73.789062 70.917969 73.164062 70.429688 C 70.976562 68.769531 70.644531 66.132812 72.363281 64.082031 C 72.675781 63.730469 73.203125 63.300781 73.535156 63.164062 C 74.316406 62.8125 76.25 62.8125 76.933594 63.164062 Z M 52.695312 64.023438 C 53.164062 64.335938 53.90625 65.507812 53.90625 65.957031 C 53.90625 67.734375 51.679688 68.828125 50.488281 67.617188 C 49.375 66.503906 49.296875 65.351562 50.292969 64.472656 C 50.996094 63.867188 52.109375 63.652344 52.695312 64.023438 Z M 147.617188 67.695312 C 148.457031 68.574219 148.476562 69.511719 147.675781 70.332031 C 147.207031 70.78125 146.933594 70.898438 146.230469 70.898438 C 145.507812 70.898438 145.234375 70.78125 144.746094 70.292969 C 144.394531 69.941406 144.140625 69.492188 144.140625 69.199219 C 144.140625 67.910156 145.390625 66.679688 146.484375 66.914062 C 146.757812 66.972656 147.265625 67.324219 147.617188 67.695312 Z M 97.714844 94.082031 C 97.675781 103.730469 97.617188 111.757812 97.597656 111.933594 C 97.558594 112.207031 97.34375 112.207031 95.3125 111.875 C 93.59375 111.601562 92.695312 111.347656 91.503906 110.761719 C 88.828125 109.472656 85.507812 106.269531 84.296875 103.789062 C 83.320312 101.796875 83.242188 100.898438 83.300781 90.917969 C 83.339844 81.015625 83.359375 80.664062 84.433594 79.082031 C 85.039062 78.183594 87.128906 76.796875 88.046875 76.699219 C 88.4375 76.660156 90.800781 76.621094 93.28125 76.601562 L 97.773438 76.5625 Z M 111.640625 77.1875 C 112.480469 77.636719 113.828125 79.179688 114.257812 80.136719 C 114.941406 81.679688 115.019531 83.105469 114.960938 91.796875 C 114.921875 100.058594 114.902344 100.332031 114.472656 101.5625 C 113.808594 103.496094 112.792969 105.449219 111.835938 106.679688 C 109.921875 109.101562 105.078125 111.71875 101.621094 112.207031 L 100.585938 112.34375 L 100.585938 76.660156 L 105.800781 76.757812 C 110.195312 76.835938 111.132812 76.914062 111.640625 77.1875 Z M 76.464844 78.886719 C 77.988281 79.824219 78.710938 81.015625 78.710938 82.617188 C 78.710938 85.742188 75.78125 87.8125 73.164062 86.542969 C 71.816406 85.878906 70.703125 84.101562 70.703125 82.617188 C 70.703125 81.191406 71.679688 79.628906 73.046875 78.90625 C 73.964844 78.398438 75.683594 78.398438 76.464844 78.886719 Z M 124.6875 78.789062 C 126.132812 79.394531 127.34375 81.152344 127.34375 82.65625 C 127.34375 85.117188 124.667969 87.304688 122.402344 86.699219 C 119.980469 86.054688 118.632812 83.105469 119.707031 80.742188 C 120.488281 79.023438 122.949219 78.066406 124.6875 78.789062 Z M 148.964844 80.878906 C 150.898438 81.816406 151.777344 83.339844 151.914062 85.976562 L 151.992188 87.695312 L 150 87.695312 L 150 86.464844 C 150 84.941406 149.472656 83.75 148.59375 83.203125 C 147.734375 82.675781 146.386719 82.695312 145.507812 83.222656 C 144.355469 83.925781 143.945312 84.667969 143.769531 86.328125 L 143.652344 87.402344 L 142.597656 87.5 L 141.542969 87.617188 L 141.679688 85.898438 C 141.738281 84.941406 141.914062 83.886719 142.070312 83.515625 C 142.460938 82.558594 143.730469 81.25 144.628906 80.839844 C 145.742188 80.3125 147.871094 80.351562 148.964844 80.878906 Z M 53.710938 82.910156 C 54.824219 83.476562 55.449219 84.902344 54.863281 85.488281 C 54.707031 85.644531 54.746094 85.839844 54.980469 86.210938 C 55.546875 87.050781 55.292969 88.398438 54.414062 89.199219 C 53.808594 89.746094 53.574219 89.84375 52.714844 89.84375 C 51.464844 89.84375 50.625 89.355469 50.019531 88.28125 C 49.628906 87.578125 49.589844 87.324219 49.707031 86.113281 C 49.882812 84.472656 50.351562 83.652344 51.5625 83.046875 C 52.578125 82.539062 52.949219 82.519531 53.710938 82.910156 Z M 47.03125 83.515625 C 47.773438 84.140625 47.851562 84.296875 47.851562 85.136719 C 47.851562 86.152344 47.617188 86.464844 46.230469 87.285156 C 45.605469 87.675781 45.117188 88.222656 45.117188 88.535156 C 45.117188 88.59375 45.644531 88.515625 46.308594 88.359375 C 46.953125 88.203125 47.578125 88.125 47.675781 88.203125 C 47.773438 88.261719 47.851562 88.652344 47.851562 89.082031 L 47.851562 89.84375 L 45.214844 89.84375 C 42.773438 89.84375 42.578125 89.824219 42.578125 89.472656 C 42.578125 89.277344 42.773438 88.867188 43.007812 88.574219 C 43.613281 87.8125 45.273438 86.269531 45.820312 85.976562 C 46.113281 85.820312 46.289062 85.546875 46.289062 85.253906 C 46.289062 84.179688 44.84375 83.769531 44.257812 84.6875 C 44.003906 85.039062 43.789062 85.15625 43.398438 85.117188 C 42.65625 85.039062 42.773438 84.257812 43.652344 83.4375 C 44.21875 82.910156 44.472656 82.8125 45.273438 82.8125 C 46.074219 82.8125 46.347656 82.910156 47.03125 83.515625 Z M 138.75 84.023438 C 138.847656 84.101562 139.023438 84.101562 139.140625 84.042969 C 139.238281 83.964844 139.277344 84.0625 139.199219 84.257812 C 139.121094 84.453125 139.0625 85.117188 139.0625 85.761719 C 139.0625 86.914062 139.0625 86.914062 138.476562 86.914062 L 137.890625 86.914062 L 137.890625 85.371094 C 137.890625 84.511719 137.949219 83.671875 138.007812 83.496094 C 138.125 83.183594 138.164062 83.183594 138.339844 83.515625 C 138.457031 83.730469 138.632812 83.945312 138.75 84.023438 Z M 153.632812 92.265625 C 153.574219 93.554688 153.515625 95.839844 153.515625 97.363281 L 153.515625 100.15625 L 152.617188 100.292969 C 152.109375 100.351562 148.90625 100.351562 145.488281 100.273438 L 139.257812 100.136719 L 139.257812 89.941406 L 153.769531 89.941406 Z M 81.25 92.050781 L 81.25 93.300781 L 79.0625 93.417969 C 77.851562 93.496094 75.214844 93.554688 73.203125 93.554688 L 69.53125 93.554688 L 69.53125 92.324219 C 69.53125 91.640625 69.589844 91.015625 69.667969 90.957031 C 69.726562 90.878906 72.363281 90.820312 75.527344 90.820312 L 81.25 90.820312 Z M 128.828125 91.25 C 128.769531 91.503906 128.730469 92.070312 128.730469 92.519531 L 128.710938 93.359375 L 116.699219 93.359375 L 116.777344 92.246094 C 116.796875 91.621094 116.933594 91.054688 117.070312 90.976562 C 117.1875 90.898438 119.902344 90.820312 123.085938 90.820312 L 128.90625 90.820312 Z M 53.457031 95.917969 C 54.84375 96.445312 55.488281 97.890625 54.707031 98.710938 C 54.472656 98.964844 53.925781 99.335938 53.496094 99.511719 L 52.714844 99.863281 L 51.894531 99.296875 C 50.917969 98.59375 50.78125 98.027344 51.347656 96.894531 C 51.933594 95.761719 52.421875 95.527344 53.457031 95.917969 Z M 77.148438 98.027344 C 78.847656 99.160156 79.316406 100.839844 78.515625 102.988281 C 77.1875 106.542969 72.65625 106.542969 71.152344 102.988281 C 70.800781 102.148438 70.820312 100.507812 71.191406 99.707031 C 71.894531 98.242188 73.203125 97.460938 75.019531 97.460938 C 76.113281 97.460938 76.425781 97.539062 77.148438 98.027344 Z M 125.3125 98.085938 C 126.933594 99.179688 127.5 100.800781 126.933594 102.792969 C 126.679688 103.691406 125.625 104.921875 124.726562 105.351562 C 123.417969 105.976562 121.347656 105.566406 120.332031 104.472656 C 119.140625 103.203125 118.808594 101.25 119.511719 99.707031 C 120.214844 98.203125 121.40625 97.460938 123.164062 97.460938 C 124.199219 97.460938 124.511719 97.558594 125.3125 98.085938 Z M 147.148438 110.371094 C 147.96875 111.015625 148.125 111.640625 147.65625 112.382812 C 147.089844 113.300781 146.464844 113.59375 145.703125 113.28125 C 144.960938 112.96875 144.726562 112.558594 144.726562 111.5625 C 144.726562 110.195312 146.074219 109.53125 147.148438 110.371094 Z M 77.148438 111.09375 C 78.242188 111.640625 78.925781 112.8125 79.042969 114.316406 C 79.140625 115.449219 79.082031 115.742188 78.554688 116.894531 L 77.929688 118.183594 L 78.75 119.296875 C 79.941406 120.9375 82.382812 124.023438 83.085938 124.804688 L 83.710938 125.488281 L 83.632812 133.28125 L 83.554688 141.054688 L 82.96875 140.9375 C 82.65625 140.878906 81.992188 140.644531 81.503906 140.429688 L 80.644531 140.039062 L 80.722656 126.132812 L 79.628906 124.746094 C 77.929688 122.578125 74.785156 119.589844 73.59375 118.984375 C 71.816406 118.085938 70.722656 115.664062 71.308594 113.925781 C 72.109375 111.484375 75.078125 110.039062 77.148438 111.09375 Z M 124.375 111.25 C 125.214844 111.582031 126.269531 112.558594 126.679688 113.320312 C 127.03125 114.003906 127.03125 115.78125 126.660156 116.660156 C 126.210938 117.734375 125.3125 118.652344 124.140625 119.199219 C 122.96875 119.746094 119.121094 123.398438 117.929688 125.058594 L 117.265625 125.996094 L 117.402344 127.988281 C 117.480469 129.082031 117.597656 131.875 117.675781 134.179688 C 117.734375 136.484375 117.8125 138.691406 117.832031 139.0625 C 117.871094 139.726562 117.832031 139.746094 116.699219 140.195312 C 116.054688 140.429688 115.390625 140.722656 115.214844 140.800781 C 114.941406 140.957031 114.882812 140.625 114.785156 137.753906 C 114.707031 135.957031 114.648438 132.382812 114.648438 129.804688 L 114.667969 125.097656 L 115.78125 123.59375 C 116.386719 122.753906 117.695312 121.171875 118.691406 120.039062 C 119.84375 118.730469 120.390625 117.96875 120.234375 117.910156 C 120.097656 117.851562 119.785156 117.402344 119.570312 116.914062 C 118.75 115.195312 119.179688 112.851562 120.46875 111.933594 C 121.894531 110.9375 123.105469 110.703125 124.375 111.25 Z M 90.332031 114.0625 C 90.996094 114.316406 92.929688 116.132812 93.300781 116.875 C 93.925781 118.066406 92.988281 121.5625 91.972656 121.816406 C 91.640625 121.914062 91.601562 122.109375 91.601562 123.417969 C 91.601562 125.605469 91.367188 143.261719 91.328125 143.300781 C 91.308594 143.320312 90.664062 143.222656 89.902344 143.105469 L 88.496094 142.890625 L 88.59375 132.578125 L 88.691406 122.285156 L 87.851562 122.050781 C 85.46875 121.425781 84.375 118.457031 85.625 116.035156 C 85.996094 115.371094 87.070312 114.335938 87.695312 114.082031 C 88.339844 113.828125 89.6875 113.808594 90.332031 114.0625 Z M 110.917969 114.433594 C 111.835938 114.902344 112.1875 115.332031 112.714844 116.503906 C 113.300781 117.8125 113.144531 119.042969 112.207031 120.449219 C 111.582031 121.40625 110.507812 122.1875 110.136719 121.972656 C 110 121.875 109.765625 132.34375 109.765625 138.398438 C 109.765625 143.066406 109.765625 143.027344 108.359375 143.261719 C 107.890625 143.320312 107.363281 143.4375 107.1875 143.476562 C 106.855469 143.574219 106.835938 143.027344 106.855469 133.945312 C 106.855469 128.652344 106.933594 123.828125 107.011719 123.222656 C 107.148438 122.128906 107.148438 122.109375 106.40625 121.503906 C 105.410156 120.664062 104.882812 119.589844 104.882812 118.417969 C 104.882812 116.679688 106.289062 114.492188 107.675781 114.082031 C 108.496094 113.828125 110.039062 114.003906 110.917969 114.433594 Z M 147.070312 116.113281 C 147.851562 116.523438 148.242188 117.148438 148.242188 118.027344 C 148.242188 119.804688 146.796875 120.78125 145.3125 120.019531 C 144.609375 119.648438 144.335938 119.179688 144.335938 118.261719 C 144.335938 117.34375 144.785156 116.484375 145.46875 116.132812 C 146.152344 115.761719 146.367188 115.761719 147.070312 116.113281 Z M 99.746094 122.265625 C 100.683594 122.265625 100.664062 121.992188 100.625 135.585938 L 100.585938 143.945312 L 97.714844 143.945312 L 97.636719 140.957031 C 97.578125 139.335938 97.597656 134.609375 97.65625 130.46875 C 97.753906 122.402344 97.832031 121.914062 98.691406 122.148438 C 98.925781 122.207031 99.394531 122.265625 99.746094 122.265625 Z M 99.746094 122.265625 "></path>
<path style=" stroke:none;fill-rule:nonzero;fill:rgb(0%,0%,0%);fill-opacity:1;" d="M 92.695312 67.460938 C 91.640625 68.457031 91.777344 69.667969 92.988281 70.097656 C 93.945312 70.429688 94.316406 70.351562 94.941406 69.746094 C 95.371094 69.296875 95.507812 68.984375 95.507812 68.378906 C 95.507812 66.757812 93.964844 66.25 92.695312 67.460938 Z M 92.695312 67.460938 "></path>
<path style=" stroke:none;fill-rule:nonzero;fill:rgb(0%,0%,0%);fill-opacity:1;" d="M 102.949219 67.265625 C 102.714844 67.519531 102.480469 68.027344 102.421875 68.398438 C 102.246094 69.375 103.066406 70.3125 104.082031 70.3125 C 105.410156 70.3125 106.230469 69.375 105.859375 68.261719 C 105.410156 66.875 103.828125 66.328125 102.949219 67.265625 Z M 102.949219 67.265625 "></path>
<path style=" stroke:none;fill-rule:nonzero;fill:rgb(0%,0%,0%);fill-opacity:1;" d="M 121.835938 65.175781 C 120.917969 66.25 120.898438 66.953125 121.757812 67.851562 C 122.578125 68.730469 123.046875 68.730469 123.808594 67.871094 C 124.550781 67.011719 124.648438 65.859375 124.023438 65.234375 C 123.515625 64.726562 122.246094 64.707031 121.835938 65.175781 Z M 121.835938 65.175781 "></path>
<path style=" stroke:none;fill-rule:nonzero;fill:rgb(0%,0%,0%);fill-opacity:1;" d="M 74.492188 65.429688 C 73.925781 65.644531 73.4375 66.367188 73.4375 66.953125 C 73.4375 67.539062 74.609375 68.75 75.195312 68.75 C 75.429688 68.75 75.917969 68.457031 76.289062 68.085938 C 77.304688 67.070312 77.148438 65.859375 75.957031 65.449219 C 75.234375 65.195312 75.058594 65.195312 74.492188 65.429688 Z M 74.492188 65.429688 "></path>
<path style=" stroke:none;fill-rule:nonzero;fill:rgb(0%,0%,0%);fill-opacity:1;" d="M 89.375 82.03125 C 88.242188 82.382812 87.5 83.457031 87.5 84.765625 C 87.5 85.664062 87.714844 86.191406 88.417969 86.933594 C 88.886719 87.441406 88.886719 87.441406 88.828125 91.347656 L 88.769531 95.273438 L 90.039062 95.371094 C 90.742188 95.429688 91.328125 95.449219 91.347656 95.429688 C 91.386719 95.410156 91.425781 93.632812 91.464844 91.484375 L 91.503906 87.597656 L 92.089844 86.855469 C 92.519531 86.269531 92.675781 85.839844 92.734375 84.960938 C 92.832031 83.691406 92.636719 83.222656 91.738281 82.558594 C 90.996094 81.992188 90.15625 81.796875 89.375 82.03125 Z M 89.375 82.03125 "></path>
<path style=" stroke:none;fill-rule:nonzero;fill:rgb(0%,0%,0%);fill-opacity:1;" d="M 88.808594 97.460938 C 87.753906 98.300781 87.421875 99.511719 87.988281 100.566406 C 89.101562 102.734375 91.835938 102.65625 92.8125 100.449219 C 93.183594 99.609375 93.203125 99.453125 92.949219 98.75 C 92.578125 97.695312 91.855469 97.207031 90.488281 97.109375 C 89.550781 97.050781 89.257812 97.109375 88.808594 97.460938 Z M 88.808594 97.460938 "></path>
<path style=" stroke:none;fill-rule:nonzero;fill:rgb(0%,0%,0%);fill-opacity:1;" d="M 106.640625 82.460938 C 105.859375 83.007812 105.273438 84.042969 105.273438 84.882812 C 105.273438 85.527344 106.035156 86.835938 106.679688 87.285156 C 107.03125 87.519531 107.070312 87.773438 107.03125 90.605469 C 107.011719 92.285156 106.992188 94.023438 107.011719 94.472656 L 107.03125 95.273438 L 108.300781 95.351562 L 109.570312 95.410156 L 109.570312 87.597656 L 110.15625 86.445312 C 110.488281 85.820312 110.742188 84.980469 110.742188 84.609375 C 110.742188 82.617188 108.300781 81.347656 106.640625 82.460938 Z M 106.640625 82.460938 "></path>
<path style=" stroke:none;fill-rule:nonzero;fill:rgb(0%,0%,0%);fill-opacity:1;" d="M 106.289062 97.558594 C 104.980469 98.652344 104.824219 100.019531 105.878906 101.152344 C 107.304688 102.675781 109.453125 102.34375 110.351562 100.46875 C 110.878906 99.414062 110.78125 98.867188 109.882812 97.910156 C 109.296875 97.265625 109.101562 97.1875 108.066406 97.109375 C 107.03125 97.03125 106.855469 97.089844 106.289062 97.558594 Z M 106.289062 97.558594 "></path>
<path style=" stroke:none;fill-rule:nonzero;fill:rgb(0%,0%,0%);fill-opacity:1;" d="M 73.554688 81.660156 C 72.871094 82.480469 72.910156 83.105469 73.710938 83.90625 C 74.492188 84.6875 75.15625 84.765625 75.722656 84.121094 C 76.679688 83.085938 76.796875 82.246094 76.074219 81.542969 C 75.351562 80.800781 74.21875 80.859375 73.554688 81.660156 Z M 73.554688 81.660156 "></path>
<path style=" stroke:none;fill-rule:nonzero;fill:rgb(0%,0%,0%);fill-opacity:1;" d="M 122.558594 81.09375 C 121.621094 81.640625 121.40625 82.675781 122.050781 83.730469 C 122.734375 84.824219 123.945312 84.824219 124.609375 83.730469 C 125.175781 82.832031 125.117188 82.011719 124.453125 81.386719 C 123.867188 80.820312 123.203125 80.722656 122.558594 81.09375 Z M 122.558594 81.09375 "></path>
<path style=" stroke:none;fill-rule:nonzero;fill:rgb(0%,0%,0%);fill-opacity:1;" d="M 51.679688 84.863281 C 51.308594 85.214844 50.957031 85.703125 50.878906 85.917969 C 50.742188 86.386719 51.152344 87.226562 51.855469 87.890625 C 52.324219 88.339844 52.402344 88.359375 52.890625 88.066406 C 53.554688 87.714844 53.691406 86.855469 53.183594 86.289062 C 52.851562 85.917969 52.851562 85.878906 53.398438 85.449219 L 53.945312 85 L 53.535156 84.589844 C 52.949219 84.003906 52.460938 84.082031 51.679688 84.863281 Z M 51.679688 84.863281 "></path>
<path style=" stroke:none;fill-rule:nonzero;fill:rgb(0%,0%,0%);fill-opacity:1;" d="M 145.351562 92.304688 C 144.296875 93.046875 144.003906 94.6875 144.84375 95.253906 C 145.332031 95.566406 145.351562 95.625 145.214844 96.796875 L 145.097656 98.007812 L 145.644531 98.105469 C 145.9375 98.164062 146.601562 98.28125 147.128906 98.339844 C 148.164062 98.476562 148.144531 98.554688 147.851562 96.679688 C 147.714844 95.683594 147.734375 95.566406 148.203125 95.078125 C 149.628906 93.554688 147.089844 91.074219 145.351562 92.304688 Z M 145.351562 92.304688 "></path>
<path style=" stroke:none;fill-rule:nonzero;fill:rgb(0%,0%,0%);fill-opacity:1;" d="M 74.414062 99.746094 C 72.988281 100.273438 72.871094 102.011719 74.179688 103.066406 C 75.273438 103.964844 77.207031 102.167969 76.71875 100.742188 C 76.40625 99.863281 75.351562 99.394531 74.414062 99.746094 Z M 74.414062 99.746094 "></path>
<path style=" stroke:none;fill-rule:nonzero;fill:rgb(0%,0%,0%);fill-opacity:1;" d="M 122.421875 99.921875 C 121.25 100.546875 121.152344 101.796875 122.167969 102.832031 C 122.558594 103.203125 123.027344 103.515625 123.222656 103.515625 C 124.160156 103.515625 125.175781 101.914062 124.921875 100.859375 C 124.785156 100.371094 123.769531 99.609375 123.242188 99.609375 C 123.085938 99.628906 122.714844 99.746094 122.421875 99.921875 Z M 122.421875 99.921875 "></path>
<path style=" stroke:none;fill-rule:nonzero;fill:rgb(0%,0%,0%);fill-opacity:1;" d="M 74.296875 113.378906 C 74.0625 113.535156 73.769531 113.90625 73.652344 114.238281 C 73.4375 114.707031 73.457031 114.902344 73.730469 115.410156 C 74.101562 116.132812 75.097656 116.816406 75.566406 116.660156 C 76.523438 116.308594 77.34375 114.960938 77.070312 114.101562 C 76.796875 113.261719 75.097656 112.8125 74.296875 113.378906 Z M 74.296875 113.378906 "></path>
<path style=" stroke:none;fill-rule:nonzero;fill:rgb(0%,0%,0%);fill-opacity:1;" d="M 122.265625 113.339844 C 120.703125 114.140625 121.328125 116.796875 123.085938 116.796875 C 123.789062 116.796875 124.335938 116.230469 124.609375 115.234375 C 124.863281 114.277344 124.550781 113.59375 123.710938 113.28125 C 123.066406 113.027344 122.851562 113.046875 122.265625 113.339844 Z M 122.265625 113.339844 "></path>
<path style=" stroke:none;fill-rule:nonzero;fill:rgb(0%,0%,0%);fill-opacity:1;" d="M 88.261719 116.972656 C 87.949219 117.304688 87.695312 117.753906 87.695312 118.027344 C 87.695312 118.59375 88.476562 119.433594 89.296875 119.707031 C 89.824219 119.902344 89.941406 119.863281 90.449219 119.355469 C 91.269531 118.535156 91.289062 117.539062 90.507812 116.835938 C 89.824219 116.230469 88.964844 116.269531 88.261719 116.972656 Z M 88.261719 116.972656 "></path>
<path style=" stroke:none;fill-rule:nonzero;fill:rgb(0%,0%,0%);fill-opacity:1;" d="M 108.242188 116.71875 C 106.894531 117.65625 107.109375 119.0625 108.730469 119.902344 C 109.316406 120.214844 110.039062 119.746094 110.566406 118.710938 C 111.015625 117.832031 110.9375 117.363281 110.214844 116.796875 C 109.609375 116.328125 108.847656 116.289062 108.242188 116.71875 Z M 108.242188 116.71875 "></path>
</g>
</svg><style>@media (prefers-color-scheme: light) { :root { filter: none; } }
</style></svg>